<svg width="62" height="62" viewBox="0 0 62 62" fill="none" xmlns="http://www.w3.org/2000/svg">
<g clip-path="url(#clip0_2376_330)">
<path d="M35.4202 0.135148C36.2918 0.0528263 37.187 0.176309 38.0528 0.0116655C39.9787 0.0116655 41.9046 0.0116655 43.8305 0.0116655C44.1825 -0.00105633 44.5349 0.0127029 44.8848 0.0528263C45.5674 0.125363 46.2546 0.145022 46.9402 0.111628C47.5292 0.111628 48.0652 0.22923 48.6306 0.21747C49.4787 0.21747 50.3209 0.323312 51.1749 0.293911C51.8699 0.423274 52.5884 0.358593 53.2893 0.446794C54.7027 0.513289 56.1087 0.690234 57.4944 0.976005C58.3072 1.11713 58.8962 1.59342 59.6677 1.81098C60.3038 1.99835 60.8624 2.38569 61.2603 2.91541C61.6582 3.44512 61.8743 4.08891 61.8763 4.75104C61.9937 5.27192 62.0176 5.80945 61.947 6.33868C61.788 7.02077 61.947 7.7205 61.7703 8.39672C61.6937 9.4963 61.6231 10.59 61.5112 11.6837C61.5818 12.3952 61.3404 13.0949 61.3993 13.8064C61.1107 17.2581 60.6631 20.7097 60.2626 24.1554C60.2626 26.0018 60.2626 27.8482 60.2626 29.6886C60.1478 30.7429 60.1123 31.8043 60.1565 32.8639C60.1153 33.693 60.3156 34.5103 60.2743 35.3394C60.3166 36.5166 60.2792 37.6953 60.1624 38.8675C60.1929 39.6939 60.1614 40.5214 60.0682 41.343C60.0152 42.8719 59.8503 44.4007 59.6972 45.9237C59.4734 47.7641 59.3673 49.6164 59.1553 51.4569C59.1553 52.2507 58.9492 53.021 58.9079 53.8089C58.8667 54.5968 58.4014 55.4201 57.9892 56.1609C57.9234 56.2399 57.841 56.3035 57.7479 56.3471C57.6548 56.3907 57.5531 56.4133 57.4503 56.4133C57.3474 56.4133 57.2458 56.3907 57.1527 56.3471C57.0595 56.3035 56.9771 56.2399 56.9114 56.1609C56.7254 55.8779 56.5166 55.6104 56.2871 55.3613C56.0574 55.6317 56.0986 55.9963 55.8866 56.2727C55.2976 57.0136 55.1327 57.9779 54.2198 58.5189C53.3069 59.0598 52.0171 58.9187 50.9099 59.0598C49.8144 59.0598 48.7425 59.2304 47.647 59.1716C46.5699 59.2647 45.4884 59.2962 44.4077 59.2657C41.8693 59.4656 39.3191 59.3068 36.7807 59.3774C35.8619 59.5244 34.9195 59.4127 34.0008 59.4832C33.2377 59.5616 32.4709 59.5989 31.7038 59.5949C30.9912 59.6714 30.2785 59.6361 29.5659 59.6949C28.8874 59.6829 28.2088 59.7124 27.534 59.7831C23.7352 59.9125 19.9599 60.3358 16.1847 60.7239C13.0102 60.9768 9.85333 61.4001 6.70238 61.8411C6.04395 61.9204 5.37999 61.944 4.71758 61.9117C4.37484 61.8646 4.05983 61.6979 3.82825 61.4413C3.45737 61.1927 3.07405 60.963 2.67978 60.7533C2.05548 60.1653 1.814 59.4421 1.30161 58.8246C0.729892 58.1335 0.357316 57.3002 0.223805 56.4138C0.170799 55.5788 0.636079 54.785 0.565403 53.9441C0.353377 52.4212 0.30037 50.8865 0.100123 49.3929C0.121376 48.8304 0.0878443 48.2672 0 47.7112C0 46.0648 0 44.4183 0 42.7719C0.188468 41.5312 0 40.2787 0.111903 39.0322C0.376935 37.9032 0.0588962 36.733 0.329819 35.604C0.412273 31.8996 1.07191 28.2245 1.36639 24.5377C1.33105 23.8614 1.55486 23.2087 1.50185 22.5325C1.6432 21.7799 1.50185 21.0037 1.66676 20.251C1.83167 19.4984 1.60198 18.7634 1.79633 18.0342C1.90235 16.9876 1.70799 15.9292 1.92002 14.8884C2.00836 14.218 1.75511 13.5595 1.81989 12.8891C1.87198 11.7906 1.83851 10.6896 1.71977 9.59626C1.66087 8.26148 1.52541 6.93257 1.34283 5.60366C1.16799 4.7948 1.11244 3.96478 1.17792 3.13989C1.2576 2.80838 1.40284 2.49611 1.60513 2.22145C1.80742 1.94678 2.06266 1.71526 2.35585 1.5405C3.14075 1.17934 3.98098 0.952725 4.84127 0.870163C5.43023 0.73492 5.94851 1.15241 6.54336 1.04657C7.29135 0.917204 8.05111 0.981886 8.79909 0.858403C11.579 0.858403 14.3648 0.858403 17.1447 0.858403C17.7516 0.940845 18.364 0.976232 18.9763 0.964245C19.7361 1.01129 20.4723 0.805482 21.2321 0.858403C22.3688 0.911324 23.4878 0.70552 24.6245 0.752561C25.4314 0.634958 26.2559 0.752561 27.0569 0.599678C27.5045 0.540876 27.9698 0.599678 28.4174 0.540876C29.1183 0.399754 29.8486 0.499716 30.5553 0.387993C31.4506 0.387993 32.3222 0.24687 33.2174 0.264511C33.9478 0.164549 34.6898 0.24687 35.4202 0.135148Z" fill="black"/>
<path d="M12.3741 14.0712H17.7337V11.1135H9.11719V31.8057H12.3741V23.2619H16.5793V20.3042H12.3741V14.0712Z" fill="white"/>
<path d="M28.8592 26.8664V11.1135H25.7848V27.0487C25.7848 28.5304 25.131 29.0597 24.0945 29.0597C23.0579 29.0597 22.41 28.5304 22.41 27.0487V11.1135H19.1531V26.8664C19.1531 30.1769 20.8081 32.0703 24.0061 32.0703C27.2042 32.0703 28.8592 30.1769 28.8592 26.8664Z" fill="white"/>
<path d="M33.9831 16.8172L38.0351 31.8057H41.3804V11.1135H38.4827V23.4971L35.1374 11.1135H31.05V31.8057H33.9831V16.8172Z" fill="white"/>
<path d="M49.4317 31.8057V14.0712H52.8418V11.1135H42.7705V14.0712H46.1747V31.8057H49.4317Z" fill="white"/>
<path d="M12.4566 36.3215C10.2539 36.3215 9.11719 37.621 9.11719 39.9025V47.3056C9.11719 49.5871 10.2539 50.8866 12.4566 50.8866C14.6593 50.8866 15.8019 49.5871 15.8019 47.3056V45.4181H13.6816V47.4467C13.6816 48.464 13.234 48.8344 12.5037 48.8344C11.7734 48.8344 11.3258 48.464 11.3258 47.4467V39.7614C11.3258 38.7441 11.7734 38.3561 12.5037 38.3561C13.234 38.3561 13.6816 38.7441 13.6816 39.7614V41.2844H15.8019V39.9025C15.8019 37.6328 14.6593 36.3215 12.4566 36.3215Z" fill="white"/>
<path d="M20.3898 36.3215C18.1871 36.3215 16.9856 37.621 16.9856 39.9025V47.3056C16.9856 49.5871 18.1635 50.8866 20.3898 50.8866C22.6161 50.8866 23.7881 49.5871 23.7881 47.3056V39.9025C23.7881 37.6328 22.5866 36.3215 20.3898 36.3215ZM21.5677 47.4467C21.5677 48.464 21.1201 48.8521 20.3898 48.8521C19.6595 48.8521 19.2119 48.464 19.2119 47.4467V39.7614C19.2119 38.7441 19.6654 38.3561 20.3898 38.3561C21.1142 38.3561 21.5677 38.7441 21.5677 39.7614V47.4467Z" fill="white"/>
<path d="M25.2429 50.7219H27.481V44.8476H30.3728V42.8131H27.481V38.5206H31.1679V36.4861H25.2429V50.7219Z" fill="white"/>
<path d="M32.2515 50.7219H34.4954V44.8476H37.3872V42.8131H34.4954V38.5206H38.1823V36.4861H32.2515V50.7219Z" fill="white"/>
<path d="M39.2661 50.7219H45.3795V48.6932H41.5101V44.5183H44.5844V42.4838H41.5101V38.5206H45.3795V36.4861H39.2661V50.7219Z" fill="white"/>
<path d="M52.883 38.5206V36.4861H46.7695V50.7219H52.883V48.6932H49.0076V44.5183H52.0879V42.4838H49.0076V38.5206H52.883Z" fill="white"/>
</g>
<defs>
<clipPath id="clip0_2376_330">
<rect width="62" height="62" fill="white"/>
</clipPath>
</defs>
</svg>
