<svg width="364" height="24" viewBox="0 0 364 24" fill="none" xmlns="http://www.w3.org/2000/svg">
<path d="M205.967 6.75V20.25" stroke="white" stroke-opacity="0.28" stroke-width="1.5" stroke-linecap="round"/>
<path fill-rule="evenodd" clip-rule="evenodd" d="M192.727 9.69289C193.332 8.98627 194.043 8.37934 194.836 7.89568L195.372 7.56877C195.634 7.40932 195.973 7.53915 196.066 7.83427L196.307 8.59891C196.756 10.0209 196.988 11.504 196.999 12.997C197.403 13.6155 197.728 14.1687 197.728 15.085C197.728 18.0849 194.969 20.4438 191.543 20.9181L191.515 20.9219L190.239 21L188.962 20.9219L188.934 20.9181C185.508 20.4438 182.749 18.0849 182.749 15.085C182.749 14.2423 183.129 13.5965 183.486 13.0087C183.498 11.497 183.735 9.99561 184.185 8.55478L184.41 7.83775C184.503 7.5408 184.845 7.40985 185.107 7.5702L185.857 8.02732C186.603 8.48232 187.268 9.05982 187.825 9.73533C187.876 9.7129 187.926 9.69082 187.975 9.66919C188.267 9.53922 188.525 9.4252 188.784 9.34378C189.181 9.21967 189.598 9.16294 190.239 9.16294C191.37 9.16294 191.934 9.36453 192.727 9.69289Z" fill="white"/>
<path d="M213.966 19.5V9.18901H217.07V11.121H216.839C217.02 10.687 217.272 10.309 217.594 9.98701C217.916 9.665 218.3 9.42001 218.747 9.25201C219.195 9.07001 219.684 8.97901 220.215 8.97901C221.012 8.97901 221.676 9.16801 222.208 9.54601C222.74 9.92401 223.117 10.505 223.34 11.289H223.047C223.354 10.575 223.823 10.015 224.452 9.60901C225.094 9.18901 225.828 8.97901 226.654 8.97901C227.451 8.97901 228.101 9.14 228.604 9.46201C229.121 9.77 229.506 10.246 229.757 10.89C230.009 11.52 230.135 12.325 230.135 13.305V19.5H226.968V13.41C226.968 12.724 226.856 12.227 226.633 11.919C226.423 11.597 226.059 11.436 225.542 11.436C225.151 11.436 224.808 11.534 224.515 11.73C224.221 11.912 223.998 12.185 223.844 12.549C223.704 12.899 223.634 13.333 223.634 13.851V19.5H220.467V13.41C220.467 12.724 220.355 12.227 220.132 11.919C219.922 11.597 219.558 11.436 219.041 11.436C218.635 11.436 218.294 11.534 218.014 11.73C217.733 11.912 217.518 12.185 217.363 12.549C217.209 12.899 217.133 13.333 217.133 13.851V19.5H213.966ZM237.509 19.731C236.405 19.731 235.441 19.514 234.615 19.08C233.805 18.6461 233.176 18.023 232.728 17.211C232.281 16.3991 232.057 15.44 232.057 14.334C232.057 13.228 232.281 12.276 232.728 11.478C233.176 10.68 233.805 10.064 234.615 9.63001C235.441 9.19601 236.405 8.97901 237.509 8.97901C238.615 8.97901 239.572 9.19601 240.382 9.63001C241.208 10.064 241.844 10.687 242.291 11.499C242.752 12.297 242.983 13.242 242.983 14.334C242.983 15.44 242.752 16.3991 242.291 17.211C241.844 18.023 241.208 18.6461 240.382 19.08C239.572 19.514 238.615 19.731 237.509 19.731ZM237.509 17.358C238.195 17.358 238.747 17.1131 239.166 16.623C239.585 16.119 239.795 15.356 239.795 14.334C239.795 13.312 239.585 12.563 239.166 12.087C238.747 11.597 238.195 11.352 237.509 11.352C236.838 11.352 236.293 11.597 235.873 12.087C235.454 12.563 235.244 13.312 235.244 14.334C235.244 15.356 235.454 16.119 235.873 16.623C236.293 17.1131 236.838 17.358 237.509 17.358ZM244.911 19.5V9.18901H248.014V11.121H247.784C248.104 10.435 248.581 9.91001 249.21 9.54601C249.852 9.16801 250.579 8.97901 251.391 8.97901C252.215 8.97901 252.893 9.14 253.425 9.46201C253.955 9.77 254.354 10.246 254.62 10.89C254.885 11.52 255.019 12.325 255.019 13.305V19.5H251.852V13.452C251.852 12.976 251.789 12.591 251.663 12.297C251.551 11.989 251.376 11.772 251.139 11.646C250.914 11.506 250.628 11.436 250.279 11.436C249.831 11.436 249.44 11.534 249.105 11.73C248.783 11.912 248.531 12.178 248.35 12.528C248.167 12.878 248.077 13.284 248.077 13.746V19.5H244.911ZM262.332 19.731C261.226 19.731 260.261 19.514 259.438 19.08C258.626 18.6461 257.997 18.023 257.55 17.211C257.102 16.3991 256.879 15.44 256.879 14.334C256.879 13.228 257.102 12.276 257.55 11.478C257.997 10.68 258.626 10.064 259.438 9.63001C260.261 9.19601 261.226 8.97901 262.332 8.97901C263.436 8.97901 264.393 9.19601 265.205 9.63001C266.029 10.064 266.665 10.687 267.113 11.499C267.574 12.297 267.805 13.242 267.805 14.334C267.805 15.44 267.574 16.3991 267.113 17.211C266.665 18.023 266.029 18.6461 265.205 19.08C264.393 19.514 263.436 19.731 262.332 19.731ZM262.332 17.358C263.016 17.358 263.569 17.1131 263.988 16.623C264.408 16.119 264.618 15.356 264.618 14.334C264.618 13.312 264.408 12.563 263.988 12.087C263.569 11.597 263.016 11.352 262.332 11.352C261.661 11.352 261.115 11.597 260.696 12.087C260.276 12.563 260.067 13.312 260.067 14.334C260.067 15.356 260.276 16.119 260.696 16.623C261.115 17.1131 261.661 17.358 262.332 17.358ZM280.58 19.731C279.462 19.731 278.482 19.514 277.644 19.08C276.82 18.632 276.183 18.002 275.735 17.19C275.289 16.3781 275.064 15.419 275.064 14.313C275.064 13.207 275.289 12.255 275.735 11.457C276.183 10.659 276.82 10.05 277.644 9.63001C278.482 9.19601 279.462 8.97901 280.58 8.97901C281.251 8.97901 281.916 9.077 282.572 9.27301C283.243 9.46901 283.788 9.749 284.208 10.113L283.327 12.297C282.991 12.017 282.6 11.8 282.152 11.646C281.706 11.478 281.287 11.394 280.894 11.394C280.07 11.394 279.426 11.653 278.965 12.171C278.518 12.675 278.294 13.396 278.294 14.334C278.294 15.258 278.518 15.986 278.965 16.518C279.426 17.036 280.07 17.295 280.894 17.295C281.287 17.295 281.706 17.2181 282.152 17.064C282.6 16.91 282.991 16.686 283.327 16.392L284.208 18.576C283.788 18.926 283.243 19.206 282.572 19.416C281.901 19.626 281.237 19.731 280.58 19.731ZM285.583 19.5V4.69501H288.749V11.121H288.456C288.778 10.435 289.253 9.91001 289.882 9.54601C290.524 9.16801 291.252 8.97901 292.063 8.97901C292.888 8.97901 293.565 9.14 294.097 9.46201C294.629 9.77 295.027 10.246 295.292 10.89C295.558 11.52 295.691 12.325 295.691 13.305V19.5H292.524V13.452C292.524 12.976 292.461 12.591 292.335 12.297C292.223 11.989 292.049 11.772 291.811 11.646C291.588 11.506 291.3 11.436 290.951 11.436C290.503 11.436 290.112 11.534 289.777 11.73C289.455 11.912 289.203 12.178 289.022 12.528C288.841 12.878 288.749 13.284 288.749 13.746V19.5H285.583ZM303.402 19.731C302.186 19.731 301.137 19.514 300.257 19.08C299.389 18.632 298.718 18.009 298.243 17.211C297.782 16.3991 297.551 15.447 297.551 14.355C297.551 13.291 297.774 12.36 298.222 11.562C298.67 10.75 299.292 10.12 300.089 9.67201C300.899 9.21001 301.816 8.97901 302.836 8.97901C303.843 8.97901 304.71 9.19601 305.436 9.63001C306.163 10.05 306.723 10.652 307.114 11.436C307.52 12.22 307.722 13.151 307.722 14.229V15.027H300.152V13.389H305.436L305.101 13.683C305.101 12.829 304.912 12.185 304.535 11.751C304.171 11.303 303.646 11.079 302.962 11.079C302.445 11.079 302.005 11.198 301.641 11.436C301.277 11.674 300.998 12.017 300.802 12.465C300.606 12.913 300.508 13.452 300.508 14.082V14.25C300.508 14.964 300.613 15.552 300.823 16.014C301.046 16.4621 301.375 16.7981 301.808 17.022C302.256 17.246 302.808 17.358 303.465 17.358C304.024 17.358 304.59 17.274 305.164 17.106C305.738 16.938 306.254 16.679 306.716 16.329L307.555 18.45C307.038 18.842 306.401 19.157 305.646 19.395C304.905 19.619 304.157 19.731 303.402 19.731ZM314.577 19.731C313.458 19.731 312.48 19.514 311.641 19.08C310.816 18.632 310.179 18.002 309.733 17.19C309.285 16.3781 309.061 15.419 309.061 14.313C309.061 13.207 309.285 12.255 309.733 11.457C310.179 10.659 310.816 10.05 311.641 9.63001C312.48 9.19601 313.458 8.97901 314.577 8.97901C315.248 8.97901 315.912 9.077 316.569 9.27301C317.24 9.46901 317.785 9.749 318.205 10.113L317.324 12.297C316.989 12.017 316.596 11.8 316.15 11.646C315.702 11.478 315.282 11.394 314.891 11.394C314.066 11.394 313.423 11.653 312.962 12.171C312.514 12.675 312.291 13.396 312.291 14.334C312.291 15.258 312.514 15.986 312.962 16.518C313.423 17.036 314.066 17.295 314.891 17.295C315.282 17.295 315.702 17.2181 316.15 17.064C316.596 16.91 316.989 16.686 317.324 16.392L318.205 18.576C317.785 18.926 317.24 19.206 316.569 19.416C315.898 19.626 315.233 19.731 314.577 19.731ZM319.579 19.5V4.69501H322.745V13.452H322.787L326.583 9.18901H330.337L325.45 14.712V13.515L330.546 19.5H326.73L322.787 15.048H322.745V19.5H319.579ZM336.057 19.731C334.953 19.731 333.989 19.514 333.163 19.08C332.353 18.6461 331.724 18.023 331.276 17.211C330.83 16.3991 330.605 15.44 330.605 14.334C330.605 13.228 330.83 12.276 331.276 11.478C331.724 10.68 332.353 10.064 333.163 9.63001C333.989 9.19601 334.953 8.97901 336.057 8.97901C337.163 8.97901 338.12 9.19601 338.93 9.63001C339.756 10.064 340.392 10.687 340.839 11.499C341.3 12.297 341.531 13.242 341.531 14.334C341.531 15.44 341.3 16.3991 340.839 17.211C340.392 18.023 339.756 18.6461 338.93 19.08C338.12 19.514 337.163 19.731 336.057 19.731ZM336.057 17.358C336.743 17.358 337.295 17.1131 337.714 16.623C338.134 16.119 338.343 15.356 338.343 14.334C338.343 13.312 338.134 12.563 337.714 12.087C337.295 11.597 336.743 11.352 336.057 11.352C335.386 11.352 334.841 11.597 334.422 12.087C334.002 12.563 333.792 13.312 333.792 14.334C333.792 15.356 334.002 16.119 334.422 16.623C334.841 17.1131 335.386 17.358 336.057 17.358ZM347.254 19.731C346.387 19.731 345.667 19.5701 345.094 19.248C344.521 18.926 344.094 18.443 343.815 17.799C343.549 17.141 343.417 16.329 343.417 15.363V9.18901H346.583V15.447C346.583 15.8531 346.639 16.196 346.751 16.476C346.862 16.742 347.03 16.9451 347.254 17.085C347.491 17.211 347.792 17.274 348.156 17.274C348.561 17.274 348.917 17.183 349.226 17.001C349.533 16.805 349.771 16.532 349.939 16.182C350.12 15.8321 350.211 15.419 350.211 14.943V9.18901H353.378V19.5H350.295V17.484H350.61C350.301 18.198 349.861 18.7511 349.289 19.143C348.715 19.535 348.036 19.731 347.254 19.731ZM360.881 19.731C359.413 19.731 358.323 19.374 357.61 18.66C356.897 17.946 356.54 16.896 356.54 15.51V11.562H354.59V9.18901H356.54V6.16501H359.707V9.18901H362.748V11.562H359.707V15.384C359.707 15.972 359.84 16.413 360.105 16.707C360.385 17.001 360.826 17.148 361.427 17.148C361.609 17.148 361.798 17.127 361.993 17.085C362.202 17.043 362.427 16.9871 362.664 16.917L363.125 19.227C362.832 19.3811 362.483 19.5 362.077 19.584C361.672 19.682 361.274 19.731 360.881 19.731Z" fill="white"/>
<path d="M8.13682 19.689C7.08826 19.689 6.13756 19.5139 5.28474 19.164C4.43191 18.814 3.69792 18.303 3.08276 17.631C2.48159 16.959 2.02022 16.161 1.69866 15.237C1.3771 14.299 1.21632 13.249 1.21632 12.087C1.21632 10.925 1.3771 9.882 1.69866 8.958C2.02022 8.02 2.48159 7.222 3.08276 6.564C3.68393 5.892 4.41094 5.38099 5.26376 5.031C6.11659 4.681 7.07428 4.506 8.13682 4.506C9.18538 4.506 10.1361 4.681 10.9889 5.031C11.8417 5.38099 12.5687 5.88499 13.1699 6.543C13.7851 7.201 14.2534 7.999 14.575 8.937C14.8965 9.861 15.0573 10.904 15.0573 12.066C15.0573 13.228 14.8965 14.278 14.575 15.216C14.2534 16.1539 13.7851 16.959 13.1699 17.631C12.5687 18.303 11.8417 18.814 10.9889 19.164C10.1361 19.5139 9.18538 19.689 8.13682 19.689ZM8.13682 17.799C9.11547 17.799 9.94734 17.575 10.6324 17.127C11.3314 16.6789 11.8627 16.0279 12.2262 15.174C12.6037 14.32 12.7924 13.291 12.7924 12.087C12.7924 10.883 12.6107 9.85399 12.2472 9C11.8837 8.146 11.3524 7.50199 10.6534 7.068C9.96831 6.61999 9.12946 6.396 8.13682 6.396C7.15817 6.396 6.31932 6.61999 5.62027 7.068C4.93522 7.50199 4.40394 8.146 4.02646 9C3.66296 9.85399 3.48121 10.883 3.48121 12.087C3.48121 13.277 3.66296 14.306 4.02646 15.174C4.40394 16.0279 4.93522 16.6789 5.62027 17.127C6.31932 17.575 7.15817 17.799 8.13682 17.799ZM23.7476 23.28V17.379H23.9573C23.7335 18.121 23.3701 18.6949 22.8668 19.101C22.3775 19.4929 21.7622 19.689 21.0214 19.689C20.2803 19.689 19.6302 19.4719 19.071 19.038C18.5117 18.604 18.0713 17.988 17.7499 17.19C17.4283 16.392 17.2675 15.454 17.2675 14.376C17.2675 13.284 17.4212 12.346 17.7289 11.562C18.0503 10.764 18.4907 10.148 19.0501 9.714C19.6232 9.28 20.2803 9.063 21.0214 9.063C21.7622 9.063 22.3845 9.26599 22.8878 9.672C23.3911 10.078 23.7476 10.645 23.9573 11.373H23.7476V4.695H25.8657V11.373H25.656C25.8516 10.645 26.2013 10.078 26.7046 9.672C27.2218 9.26599 27.8439 9.063 28.571 9.063C29.3119 9.063 29.962 9.28 30.5213 9.714C31.0944 10.148 31.5348 10.764 31.8425 11.562C32.164 12.346 32.3248 13.284 32.3248 14.376C32.3248 15.454 32.171 16.392 31.8635 17.19C31.5558 17.988 31.1154 18.604 30.5423 19.038C29.983 19.4719 29.326 19.689 28.571 19.689C27.8439 19.689 27.2288 19.4929 26.7255 19.101C26.2362 18.6949 25.8796 18.121 25.656 17.379H25.8657V23.28H23.7476ZM21.5876 18.072C22.049 18.072 22.4404 17.9389 22.762 17.673C23.0834 17.3929 23.3351 16.98 23.5169 16.434C23.6986 15.874 23.7896 15.1879 23.7896 14.376C23.7896 13.564 23.6986 12.885 23.5169 12.339C23.3351 11.793 23.0765 11.387 22.741 11.121C22.4194 10.841 22.0349 10.701 21.5876 10.701C20.9165 10.701 20.3782 11.009 19.9728 11.625C19.5812 12.241 19.3856 13.158 19.3856 14.376C19.3856 15.6079 19.5812 16.5319 19.9728 17.148C20.3782 17.764 20.9165 18.072 21.5876 18.072ZM28.0048 18.072C28.6898 18.072 29.228 17.764 29.6196 17.148C30.011 16.5319 30.2068 15.6079 30.2068 14.376C30.2068 13.158 30.0039 12.241 29.5986 11.625C29.207 11.009 28.6759 10.701 28.0048 10.701C27.5573 10.701 27.1728 10.841 26.8514 11.121C26.5298 11.387 26.2781 11.793 26.0964 12.339C25.9145 12.885 25.8238 13.564 25.8238 14.376C25.8238 15.1879 25.9145 15.874 26.0964 16.434C26.2781 16.98 26.5298 17.3929 26.8514 17.673C27.1728 17.9389 27.5573 18.072 28.0048 18.072ZM39.4016 19.689C38.3669 19.689 37.4722 19.4719 36.7173 19.038C35.9762 18.604 35.3961 17.988 34.9766 17.19C34.5572 16.392 34.3475 15.454 34.3475 14.376C34.3475 13.284 34.5572 12.346 34.9766 11.562C35.3961 10.764 35.9762 10.148 36.7173 9.714C37.4722 9.28 38.3669 9.063 39.4016 9.063C40.4221 9.063 41.3029 9.28 42.0439 9.714C42.7989 10.148 43.3861 10.764 43.8055 11.562C44.2249 12.36 44.4347 13.298 44.4347 14.376C44.4347 15.454 44.2249 16.392 43.8055 17.19C43.3861 17.988 42.7989 18.604 42.0439 19.038C41.3029 19.4719 40.4221 19.689 39.4016 19.689ZM39.3806 18.051C40.2614 18.051 40.9674 17.736 41.4987 17.106C42.03 16.476 42.2956 15.5659 42.2956 14.376C42.2956 13.172 42.03 12.262 41.4987 11.646C40.9674 11.03 40.2614 10.722 39.3806 10.722C38.5137 10.722 37.8148 11.03 37.2835 11.646C36.7522 12.262 36.4866 13.172 36.4866 14.376C36.4866 15.5659 36.7522 16.476 37.2835 17.106C37.8148 17.736 38.5137 18.051 39.3806 18.051ZM47.0592 23.28V9.252H49.1353V11.562H48.9047C49.1283 10.806 49.5687 10.204 50.2258 9.756C50.883 9.294 51.6589 9.063 52.5537 9.063C53.4625 9.063 54.2523 9.28 54.9234 9.714C55.6084 10.148 56.1327 10.757 56.4962 11.541C56.8737 12.325 57.0625 13.27 57.0625 14.376C57.0625 15.454 56.8737 16.399 56.4962 17.211C56.1327 18.009 55.6154 18.625 54.9444 19.059C54.2733 19.479 53.4764 19.689 52.5537 19.689C51.6729 19.689 50.904 19.465 50.2468 19.017C49.5897 18.5689 49.1493 17.974 48.9256 17.232H49.1773V23.28H47.0592ZM52.0294 18.051C52.9102 18.051 53.6093 17.736 54.1265 17.106C54.6578 16.476 54.9234 15.5659 54.9234 14.376C54.9234 13.172 54.6578 12.262 54.1265 11.646C53.6093 11.03 52.9102 10.722 52.0294 10.722C51.1625 10.722 50.4636 11.03 49.9323 11.646C49.4009 12.262 49.1353 13.172 49.1353 14.376C49.1353 15.5659 49.4009 16.476 49.9323 17.106C50.4636 17.736 51.1625 18.051 52.0294 18.051ZM59.6537 19.5V9.252H61.3944L65.1063 15.741L68.7972 9.252H70.5378V19.5H68.6714V11.709H69.1537L65.6096 17.841H64.582L61.0378 11.709H61.5202V19.5H59.6537ZM73.7232 19.5V9.252H75.6525V17.4H75.1073L81.1889 9.252H82.9715V19.5H81.0421V11.352H81.6083L75.5057 19.5H73.7232ZM88.2935 19.5V10.953H84.6865V9.252H94.0396V10.953H90.4116V19.5H88.2935ZM95.7389 19.5V9.252H97.6682V17.4H97.123L103.205 9.252H104.987V19.5H103.058V11.352H103.624L97.5214 19.5H95.7389ZM120.18 19.5V15.552C119.803 15.762 119.397 15.9229 118.964 16.035C118.544 16.147 118.097 16.203 117.622 16.203C116.643 16.203 115.825 16.042 115.168 15.72C114.525 15.3979 114.043 14.922 113.721 14.292C113.413 13.648 113.26 12.843 113.26 11.877V9.252H115.378V11.709C115.378 12.339 115.462 12.864 115.629 13.284C115.811 13.69 116.091 13.991 116.468 14.187C116.846 14.369 117.342 14.46 117.957 14.46C118.405 14.46 118.803 14.411 119.153 14.313C119.502 14.201 119.838 14.033 120.159 13.809V9.252H122.277V19.5H120.18ZM130.278 19.689C129.16 19.689 128.195 19.479 127.384 19.059C126.587 18.625 125.965 18.016 125.518 17.232C125.084 16.434 124.868 15.489 124.868 14.397C124.868 13.333 125.084 12.402 125.518 11.604C125.951 10.806 126.545 10.183 127.3 9.735C128.055 9.28699 128.915 9.063 129.88 9.063C130.831 9.063 131.641 9.273 132.312 9.693C132.997 10.099 133.522 10.68 133.885 11.436C134.249 12.192 134.431 13.095 134.431 14.145V14.859H126.545V13.557H133.005L132.648 13.851C132.648 12.801 132.417 11.989 131.956 11.415C131.495 10.841 130.831 10.554 129.964 10.554C129.307 10.554 128.747 10.708 128.286 11.016C127.839 11.324 127.496 11.751 127.258 12.297C127.021 12.843 126.902 13.48 126.902 14.208V14.334C126.902 15.1459 127.028 15.832 127.279 16.392C127.545 16.938 127.93 17.3509 128.433 17.631C128.936 17.911 129.558 18.051 130.299 18.051C130.886 18.051 131.46 17.9599 132.019 17.778C132.592 17.5819 133.13 17.281 133.634 16.875L134.263 18.345C133.801 18.765 133.207 19.0939 132.48 19.332C131.753 19.57 131.019 19.689 130.278 19.689ZM136.965 23.28V9.252H139.041V11.562H138.81C139.034 10.806 139.475 10.204 140.132 9.756C140.789 9.294 141.565 9.063 142.459 9.063C143.368 9.063 144.158 9.28 144.829 9.714C145.514 10.148 146.039 10.757 146.402 11.541C146.779 12.325 146.968 13.27 146.968 14.376C146.968 15.454 146.779 16.399 146.402 17.211C146.039 18.009 145.521 18.625 144.85 19.059C144.179 19.479 143.382 19.689 142.459 19.689C141.579 19.689 140.81 19.465 140.153 19.017C139.496 18.5689 139.055 17.974 138.831 17.232H139.083V23.28H136.965ZM141.935 18.051C142.816 18.051 143.515 17.736 144.032 17.106C144.564 16.476 144.829 15.5659 144.829 14.376C144.829 13.172 144.564 12.262 144.032 11.646C143.515 11.03 142.816 10.722 141.935 10.722C141.068 10.722 140.369 11.03 139.838 11.646C139.307 12.262 139.041 13.172 139.041 14.376C139.041 15.5659 139.307 16.476 139.838 17.106C140.369 17.736 141.068 18.051 141.935 18.051ZM154.382 19.689C153.265 19.689 152.3 19.479 151.488 19.059C150.691 18.625 150.07 18.016 149.622 17.232C149.189 16.434 148.972 15.489 148.972 14.397C148.972 13.333 149.189 12.402 149.622 11.604C150.056 10.806 150.65 10.183 151.405 9.735C152.159 9.28699 153.019 9.063 153.984 9.063C154.935 9.063 155.746 9.273 156.417 9.693C157.103 10.099 157.627 10.68 157.989 11.436C158.353 12.192 158.535 13.095 158.535 14.145V14.859H150.65V13.557H157.109L156.752 13.851C156.752 12.801 156.521 11.989 156.06 11.415C155.599 10.841 154.935 10.554 154.068 10.554C153.412 10.554 152.852 10.708 152.39 11.016C151.944 11.324 151.601 11.751 151.363 12.297C151.126 12.843 151.006 13.48 151.006 14.208V14.334C151.006 15.1459 151.132 15.832 151.384 16.392C151.65 16.938 152.034 17.3509 152.537 17.631C153.04 17.911 153.663 18.051 154.403 18.051C154.991 18.051 155.564 17.9599 156.123 17.778C156.697 17.5819 157.235 17.281 157.738 16.875L158.367 18.345C157.906 18.765 157.312 19.0939 156.584 19.332C155.858 19.57 155.124 19.689 154.382 19.689ZM164.613 19.689C163.719 19.689 162.873 19.5769 162.076 19.353C161.279 19.129 160.629 18.814 160.126 18.408L160.734 16.98C161.224 17.358 161.803 17.6449 162.474 17.841C163.16 18.0229 163.858 18.114 164.571 18.114C165.509 18.114 166.186 17.988 166.606 17.736C167.025 17.484 167.235 17.0989 167.235 16.581C167.235 16.105 167.067 15.741 166.731 15.489C166.411 15.223 165.935 15.09 165.305 15.09H162.747V13.536H165.075C165.635 13.536 166.075 13.417 166.396 13.179C166.718 12.927 166.878 12.577 166.878 12.129C166.878 11.667 166.69 11.303 166.312 11.037C165.95 10.771 165.341 10.638 164.488 10.638C163.79 10.638 163.145 10.729 162.558 10.911C161.971 11.079 161.412 11.338 160.881 11.688L160.272 10.281C160.846 9.87499 161.517 9.574 162.286 9.378C163.056 9.168 163.894 9.063 164.802 9.063C166.131 9.063 167.13 9.322 167.801 9.84C168.487 10.344 168.829 11.044 168.829 11.94C168.829 12.598 168.605 13.151 168.158 13.599C167.725 14.033 167.145 14.292 166.417 14.376V14.103C166.991 14.117 167.48 14.236 167.885 14.46C168.304 14.67 168.626 14.964 168.85 15.342C169.088 15.72 169.206 16.1539 169.206 16.644C169.206 17.568 168.815 18.31 168.032 18.87C167.25 19.416 166.11 19.689 164.613 19.689Z" fill="white"/>
</svg>
